# xmcd
#
# Track frame offsets:
#	150
#	16193
#	31554
#	46563
#	67532
#	87411
#	99594
#	113829
#	130606
#	145888
#	163137
#	175591
#	186351
#	198668
#	211291
#	223741
#	236189
#	246046
#	258720
#	270153
#	285755
#	298979
#
# Disc length: 4195 seconds
#
# Revision: 1
# Processed by: cddbd v1.5.2PL0 Copyright (c) Steve Scherf et al.
# Submitted via: audiograbber 1.83.01
#
DISCID=34106116
DTITLE=jimmy witherspoon (US) - eight classic albums cd3
DYEAR=2014
DGENRE=Blues
TTITLE0=times are gettin' tougher than tough
TTITLE1=how long
TTITLE2=corrina corrina
TTITLE3=c. c. rider
TTITLE4=roll 'em pete
TTITLE5=every day i have the blues
TTITLE6=kansas city
TTITLE7=i'm gonna move to the outskirts of town
TTITLE8=trouble in mind
TTITLE9=st. louis blues
TTITLE10=lover come back to me
TTITLE11=a blues serenade
TTITLE12=do nothin' till you hear from me
TTITLE13=ain't misbeheavin'
TTITLE14=we'll be together again
TTITLE15=i'll always be in love with you
TTITLE16=just a-sittin' and a-rockin'
TTITLE17=just one more chance
TTITLE18=music, maestro, please
TTITLE19=it only happens once
TTITLE20=i'm beginning to see the light
TTITLE21=don't worry 'bout me
EXTD=
EXTT0=
EXTT1=
EXTT2=
EXTT3=
EXTT4=
EXTT5=
EXTT6=
EXTT7=
EXTT8=
EXTT9=
EXTT10=
EXTT11=
EXTT12=
EXTT13=
EXTT14=
EXTT15=
EXTT16=
EXTT17=
EXTT18=
EXTT19=
EXTT20=
EXTT21=
PLAYORDER=
